HIERARCHY
ROOT Hips
{
	OFFSET 0.000000 0.000000 0.000000
	CHANNELS 6 Xposition Yposition Zposition Xrotation Yrotation Zrotation
	JOINT LeftUpLeg_virtual
	{
		OFFSET 0.000000 0.000000 0.000000
		CHANNELS 3 Xrotation Yrotation Zrotation
		JOINT LeftUpLeg
		{
			OFFSET 11.394100 -6.187798 -0.413800
			CHANNELS 3 Xrotation Yrotation Zrotation
			JOINT LeftLeg
			{
				OFFSET 0.430247 -32.302673 3.732800
				CHANNELS 3 Xrotation Yrotation Zrotation
				JOINT LeftFoot
				{
					OFFSET -0.430247 -48.264931 -6.423300
					CHANNELS 3 Xrotation Yrotation Zrotation
					JOINT LeftToeBase
					{
						OFFSET 4.230900 -16.068199 23.438400
						CHANNELS 3 Xrotation Yrotation Zrotation
						JOINT LeftToe_End
						{
							OFFSET 4.510700 0.695400 19.974600
							CHANNELS 3 Xrotation Yrotation Zrotation
							End Site
							{
								OFFSET 0 0 0
							}
						}
					}
				}
			}
		}
	}
	JOINT RightUpLeg_virtual
	{
		OFFSET 0.000000 0.000000 0.000000
		CHANNELS 3 Xrotation Yrotation Zrotation
		JOINT RightUpLeg
		{
			OFFSET -11.333700 -6.187798 -0.413800
			CHANNELS 3 Xrotation Yrotation Zrotation
			JOINT RightLeg
			{
				OFFSET -0.430392 -32.302628 3.733000
				CHANNELS 3 Xrotation Yrotation Zrotation
				JOINT RightFoot
				{
					OFFSET 0.430392 -48.264973 -6.423500
					CHANNELS 3 Xrotation Yrotation Zrotation
					JOINT RightToeBase
					{
						OFFSET -4.230900 -16.068199 23.438400
						CHANNELS 3 Xrotation Yrotation Zrotation
						JOINT RightToe_End
						{
							OFFSET -4.510700 0.695400 19.974600
							CHANNELS 3 Xrotation Yrotation Zrotation
							End Site
							{
								OFFSET 0 0 0
							}
						}
					}
				}
			}
		}
	}
	JOINT Spine_virtual
	{
		OFFSET 0.000000 0.000000 0.000000
		CHANNELS 3 Xrotation Yrotation Zrotation
		JOINT Spine
		{
			OFFSET -0.002400 12.777504 0.315300
			CHANNELS 3 Xrotation Yrotation Zrotation
			JOINT Spine1
			{
				OFFSET -0.002067 5.816869 0.032633
				CHANNELS 3 Xrotation Yrotation Zrotation
				JOINT Spine1_split
				{
					OFFSET -0.002067 5.816869 0.032633
					CHANNELS 3 Xrotation Yrotation Zrotation
					JOINT Spine2
					{
						OFFSET -0.002067 5.816869 0.032633
						CHANNELS 3 Xrotation Yrotation Zrotation
						JOINT Neck_virtual
						{
							OFFSET 0.000000 0.000000 0.000000
							CHANNELS 3 Xrotation Yrotation Zrotation
							JOINT Neck
							{
								OFFSET -0.003700 21.199493 -0.826900
								CHANNELS 3 Xrotation Yrotation Zrotation
								JOINT Head
								{
									OFFSET 0.000000 20.442200 4.834800
									CHANNELS 3 Xrotation Yrotation Zrotation
									JOINT HeadTop_End
									{
										OFFSET 0.000000 34.668396 4.968400
										CHANNELS 3 Xrotation Yrotation Zrotation
										End Site
										{
											OFFSET 0 0 0
										}
									}
								}
							}
						}
						JOINT LeftShoulder_virtual
						{
							OFFSET 0.000000 0.000000 0.000000
							CHANNELS 3 Xrotation Yrotation Zrotation
							JOINT LeftShoulder
							{
								OFFSET 3.288150 8.794197 -1.372250
								CHANNELS 3 Xrotation Yrotation Zrotation
								JOINT LeftShoulder_split
								{
									OFFSET 3.288150 8.794197 -1.372250
									CHANNELS 3 Xrotation Yrotation Zrotation
									JOINT LeftArm
									{
										OFFSET 11.953299 -2.279007 -0.146200
										CHANNELS 3 Xrotation Yrotation Zrotation
										JOINT LeftForeArm
										{
											OFFSET 18.448900 0.000000 0.000000
											CHANNELS 3 Xrotation Yrotation Zrotation
											JOINT LeftHand
											{
												OFFSET 29.527798 0.000000 0.000000
												CHANNELS 3 Xrotation Yrotation Zrotation
												End Site
												{
													OFFSET 0 0 0
												}
											}
										}
									}
								}
							}
						}
						JOINT RightShoulder_virtual
						{
							OFFSET 0.000000 0.000000 0.000000
							CHANNELS 3 Xrotation Yrotation Zrotation
							JOINT RightShoulder
							{
								OFFSET -3.249400 8.794197 -1.372250
								CHANNELS 3 Xrotation Yrotation Zrotation
								JOINT RightShoulder_split
								{
									OFFSET -3.249400 8.794197 -1.372250
									CHANNELS 3 Xrotation Yrotation Zrotation
									JOINT RightArm
									{
										OFFSET -11.953299 -2.279007 -0.146200
										CHANNELS 3 Xrotation Yrotation Zrotation
										JOINT RightForeArm
										{
											OFFSET -18.448900 0.000000 0.000000
											CHANNELS 3 Xrotation Yrotation Zrotation
											JOINT RightHand
											{
												OFFSET -29.527802 0.000000 0.000000
												CHANNELS 3 Xrotation Yrotation Zrotation
												End Site
												{
													OFFSET 0 0 0
												}
											}
										}
									}
								}
							}
						}
					}
				}
			}
		}
	}
}
MOTION
Frames: 7
Frame Time: 0.03333333
16.795197 18.927288 0.840038 0.000000 0.000000 0.000000 -86.283676 65.725824 3.697133 -110.104289 12.105872 4.832844 85.897757 24.605613 -2.015800 26.197324 -1.900535 7.012074 3.609464 0.884962 -1.086992 0.000000 0.000000 0.000000 -95.774169 70.080118 12.041521 -23.584252 6.060085 4.982801 77.463921 -2.144336 -1.238211 19.281166 -5.308115 9.713881 -9.221776 -0.682877 1.152454 0.000000 0.000000 0.000000 -80.684950 67.038368 -4.659596 13.368562 -5.415687 -6.993801 11.414963 -4.263713 -4.862419 0.961943 -0.062334 0.518911 0.000000 0.000000 0.000000 9.904892 -5.406820 -3.586076 -3.413641 6.453501 -16.994854 -28.826154 13.831166 -14.118093 0.000000 0.000000 0.000000 10.356524 -4.849950 -4.053631 3.124338 -7.096909 31.042329 -3.308996 0.199252 -1.251981 -89.967286 26.424720 -56.659496 2.137568 -29.303608 0.939068 0.000000 0.000000 0.000000 11.209481 -4.944986 -3.763777 5.312197 11.531492 -17.862172 14.173024 3.433986 0.156742 -47.186444 34.110433 104.868327 175.968855 72.919851 -175.649639 0.000000 0.000000 0.000000 
16.827829 18.912498 0.770733 0.000000 0.000000 0.000000 -85.834530 65.672050 3.438230 -110.370987 12.240129 4.848372 85.646699 24.495869 -2.044387 26.074727 -2.232171 7.075875 3.564486 0.849383 -0.873358 0.000000 0.000000 0.000000 -95.011046 69.842687 11.170132 -23.680187 5.903799 4.990642 77.583477 -2.132024 -1.287339 19.337200 -5.218407 9.602773 -9.369131 -0.670333 1.172961 0.000000 0.000000 0.000000 -80.222990 66.981104 -4.855958 13.274530 -5.403276 -6.939181 11.435396 -4.345562 -4.801182 1.143792 0.227241 0.399719 0.000000 0.000000 0.000000 9.785354 -5.510216 -3.547728 -3.308069 6.384880 -17.025111 -28.673544 13.507002 -14.157751 0.000000 0.000000 0.000000 10.378511 -4.937778 -3.953667 3.006404 -6.934098 30.749870 -2.894783 -0.069082 -0.736234 -89.925642 26.159746 -56.886159 2.069903 -29.549533 0.770633 0.000000 0.000000 0.000000 11.175948 -5.046188 -3.710937 5.297100 11.642335 -17.596591 14.489893 3.340303 0.213618 -47.222552 34.127460 105.019991 176.120471 72.818423 -175.776462 0.000000 0.000000 0.000000 
16.831455 18.854828 0.657135 0.000000 0.000000 0.000000 -85.579081 65.632408 3.282743 -110.659733 12.470232 4.986643 85.390308 24.358251 -2.111209 25.694564 -2.583553 7.324631 3.551957 0.795322 -0.688134 0.000000 0.000000 0.000000 -94.099701 69.584854 10.157018 -23.750497 5.715600 4.968272 77.719985 -1.983148 -1.360036 19.355561 -5.036942 9.743606 -9.683873 -0.672608 1.130226 0.000000 0.000000 0.000000 -79.903473 67.026402 -4.884760 13.199341 -5.386819 -6.800374 11.419808 -4.443172 -4.691087 1.054677 0.544993 0.068836 0.000000 0.000000 0.000000 9.623220 -5.633926 -3.471399 -2.906583 6.223545 -17.203505 -28.469308 12.988963 -14.175882 0.000000 0.000000 0.000000 10.364167 -5.040913 -3.796283 2.816908 -6.702737 30.449943 -2.411592 -0.274239 -0.066475 -89.688764 25.751070 -57.468337 2.157831 -29.211237 0.681347 0.000000 0.000000 0.000000 11.104799 -5.153429 -3.566751 5.219729 11.697057 -17.260798 14.612117 3.320581 0.182110 -47.131433 34.444606 105.034260 176.173173 73.141292 -175.911946 0.000000 0.000000 0.000000 
16.776703 18.775490 0.549915 0.000000 0.000000 0.000000 -85.563720 65.619062 3.299929 -110.891427 12.758141 5.206126 85.231950 24.210794 -2.205423 25.063190 -2.904010 7.771592 3.623122 0.726979 -0.572118 0.000000 0.000000 0.000000 -93.281772 69.353686 9.281816 -23.720765 5.486132 4.914014 77.742340 -1.756072 -1.474038 19.148364 -4.888777 10.046652 -9.999406 -0.686221 1.053163 0.000000 0.000000 0.000000 -79.784191 67.194561 -4.707978 13.155603 -5.342415 -6.631332 11.358609 -4.518080 -4.565802 0.889268 0.836776 -0.196779 0.000000 0.000000 0.000000 9.447611 -5.735088 -3.382114 -2.286428 5.949633 -17.512856 -28.244815 12.342924 -14.191537 0.000000 0.000000 0.000000 10.294849 -5.125202 -3.622335 2.609964 -6.460892 30.176565 -2.121524 -0.236107 0.421265 -89.412155 25.183251 -58.144581 2.354021 -28.476643 0.658372 0.000000 0.000000 0.000000 10.991017 -5.228246 -3.391232 5.130309 11.644208 -16.962493 14.451881 3.440953 0.148055 -47.008965 35.022580 104.942715 176.227022 73.629480 -176.135675 0.000000 0.000000 0.000000 
16.715429 18.712337 0.500687 0.000000 0.000000 0.000000 -85.647423 65.591516 3.381863 -111.058268 13.013288 5.437011 85.172958 23.988208 -2.248884 24.288040 -3.237417 8.260365 3.768632 0.660029 -0.537881 0.000000 0.000000 0.000000 -92.692490 69.153999 8.688651 -23.585669 5.209620 4.818174 77.702575 -1.495870 -1.618168 18.737304 -4.849584 10.481519 -10.172688 -0.712735 0.991562 0.000000 0.000000 0.000000 -79.910468 67.415518 -4.338700 13.136727 -5.252830 -6.478152 11.246586 -4.547697 -4.447812 0.833449 0.975490 -0.340519 0.000000 0.000000 0.000000 9.265316 -5.770456 -3.298502 -1.557140 5.588376 -17.911186 -28.072042 11.688473 -14.212657 0.000000 0.000000 0.000000 10.151869 -5.168457 -3.471279 2.444807 -6.295894 29.927912 -1.936939 0.144759 0.737583 -89.183938 24.392641 -58.687752 2.578317 -27.677028 0.652774 0.000000 0.000000 0.000000 10.820071 -5.243981 -3.234076 5.065328 11.518294 -16.716709 14.033799 3.603475 0.137668 -46.789798 35.772419 104.752917 176.318478 74.033151 -176.428458 0.000000 0.000000 0.000000 
16.670046 18.672466 0.442917 0.000000 0.000000 0.000000 -85.773017 65.538588 3.494751 -111.193103 13.190703 5.609581 85.174406 23.697094 -2.224081 23.383942 -3.615337 8.748741 3.903050 0.596401 -0.513348 0.000000 0.000000 0.000000 -92.571104 69.050036 8.593167 -23.369270 4.871842 4.678082 77.721317 -1.231993 -1.739876 18.381736 -4.919355 11.126127 -10.316612 -0.751947 0.954923 0.000000 0.000000 0.000000 -80.197042 67.619057 -3.858731 13.115286 -5.115945 -6.373896 11.088173 -4.528513 -4.360828 0.692676 0.854689 -0.365944 0.000000 0.000000 0.000000 9.115634 -5.728194 -3.227739 -0.860886 5.241135 -18.341191 -28.022222 11.114278 -14.244039 0.000000 0.000000 0.000000 9.929745 -5.147340 -3.382093 2.355461 -6.255743 29.694439 -1.848560 0.761189 0.750355 -89.049213 23.302174 -58.929615 2.827432 -27.148837 0.636438 0.000000 0.000000 0.000000 10.607978 -5.192010 -3.124089 5.055460 11.422805 -16.466749 13.517181 3.693251 0.117802 -46.524114 36.563000 104.546694 176.484848 74.150842 -176.761580 0.000000 0.000000 0.000000 
16.630007 18.646915 0.379204 0.000000 0.000000 0.000000 -86.038418 65.448888 3.686963 -111.316114 13.299742 5.689919 85.198325 23.318635 -2.087344 22.432112 -4.051198 9.197779 3.964306 0.546841 -0.468380 0.000000 0.000000 0.000000 -93.117287 69.075042 9.138666 -23.138825 4.469518 4.523500 77.845114 -0.948383 -1.816752 18.236332 -5.030043 12.151275 -10.707513 -0.800016 0.912241 0.000000 0.000000 0.000000 -80.719353 67.805071 -3.221450 13.109477 -4.954183 -6.331675 10.915784 -4.464568 -4.317602 0.602488 0.443669 -0.181415 0.000000 0.000000 0.000000 8.999164 -5.624695 -3.171065 -0.341666 4.977838 -18.764522 -28.079022 10.732842 -14.196812 0.000000 0.000000 0.000000 9.649342 -5.076901 -3.366712 2.334347 -6.353538 29.447507 -1.939907 1.470625 0.466400 -88.779427 21.887536 -58.982898 2.992834 -27.136118 0.563652 0.000000 0.000000 0.000000 10.362085 -5.087094 -3.058981 5.136625 11.508216 -16.130627 12.940180 3.640993 0.105103 -46.266769 37.326116 104.324193 176.873049 73.925910 -177.217605 0.000000 0.000000 0.000000 
